<svg version="1.1" xmlns="http://www.w3.org/2000/svg" x="0" y="0" viewBox="0 0 199.3 50" xml:space="preserve" class="cket-logo cket-logo--black" data-v-2d8fbfa1=""><!----> <g data-v-2d8fbfa1=""><path d="M40.4 47.2H9.5c-5.2 0-9.5-4.3-9.5-9.5v-8.8h3.4c2.8 0 5.1-2.2 5.1-5s-2.3-5-5.1-5H0v-8.1c0-5.2 4.3-9.5 9.5-9.5h30.9V8H9.5C8 8 6.8 9.2 6.8 10.7v1.9c4.9 1.5 8.5 6 8.4 11.3s-3.6 9.8-8.5 11.3v2.6c0 1.5 1.2 2.7 2.8 2.7h30.9v6.7z" data-v-2d8fbfa1=""></path>{' '}
  </g> <g data-v-2d8fbfa1=""><path d="M46.1 47.2v-6.8h13.4c6.3 0 8.7-2 8.7-7.4 0-5.7-3.4-7.4-7.7-7.4h-5.1l-2.7-6.8L64.1 8h-18V1.2h27.5V8L60.9 20.2c7.8-1.3 14 3.6 14 12.8 0 7.2-3.9 14.2-15.5 14.2H46.1zM94.4 13.5c8.8 0 14 5.5 14 12.8h-6.8c-.3-3.5-1.7-6.1-6.9-6.1-6.3 0-8.7 2-8.7 10.1s2.4 10.1 8.7 10.1c5.3 0 6.7-2.6 7-6.1h6.8c0 7.4-5.2 12.8-14.1 12.8-9.9 0-15.1-7-15.1-16.9 0-9.8 5.2-16.7 15.1-16.7zM132.3 30.5l11.5 16.8h-8.2l-9.2-13.4h-5.5v13.4h-6.7V0h6.8v27.1h5.5l9.3-13.6h8.2l-11.7 17zM175 33.8h-22.1c.6 3.8 2.8 6.8 10.1 6.8 2.7 0 5.3 0 9.7-1.2V46c-5.3 1.3-7.2 1.3-9.7 1.3-15.3 0-17.1-10.9-17.1-16.9 0-9.9 4.2-16.9 14.6-16.9 10.4 0 14.6 6.3 14.6 16.2l-.1 4.1zM152.7 27h15.6c-.3-4.9-2.5-6.8-7.8-6.8-5.1.1-7.4 2.3-7.8 6.8zM190.4 20.3v20.3h8.9v6.8h-15.7v-27h-5.4v-6.8h5.4V.1h6.7v13.5h8.9v6.8l-8.8-.1z" data-v-2d8fbfa1=""></path></g></svg>